<?xml version="1.0" encoding="UTF-8"?>
<svg xmlns="http://www.w3.org/2000/svg"
     version="1.1"
     width="1024pt" height="1024pt" viewBox="0 0 1024 1024"
     preserveAspectRatio="xMidYMid meet">
  <defs>
    <filter id="thicken" color-interpolation-filters="sRGB"
            filterUnits="userSpaceOnUse" x="-50%" y="-50%" width="200%" height="200%">
      <feMorphology operator="dilate" radius="18" in="SourceGraphic" result="dilated"/>
      <feMerge>
        <feMergeNode in="dilated"/>
      </feMerge>
    </filter>
  </defs>

  <rect x="0" y="0" width="1024" height="1024" fill="#222222"/>
  <g transform="translate(0,1024) scale(0.1,-0.1)"
     fill="#FFFFFF" stroke="none" filter="url(#thicken)" shape-rendering="geometricPrecision">
    <path d="M4963 9011 c-183 -152 -316 -360 -360 -564 -21 -98 -13 -296 16 -388
27 -87 96 -198 212 -344 53 -66 113 -146 133 -178 169 -264 168 -577 -3 -812
-20 -27 -53 -69 -73 -93 -51 -58 -50 -76 2 -69 126 17 342 169 457 322 120
160 181 380 155 563 -24 170 -95 308 -251 492 -251 295 -321 466 -299 732 7
95 43 228 80 301 10 21 23 49 28 62 16 43 -31 32 -97 -24z"/>
    <path d="M4130 6929 c-436 -29 -867 -126 -1120 -254 -189 -95 -327 -213 -385
-327 l-35 -71 0 -351 c0 -193 -3 -361 -6 -373 -8 -28 -21 -30 -219 -43 -88 -6
-177 -15 -198 -21 -58 -15 -66 -36 -72 -199 -3 -80 -10 -247 -16 -372 -9 -228
-4 -303 24 -337 21 -26 91 -50 233 -81 76 -17 148 -34 160 -39 18 -8 23 -26
38 -118 28 -183 31 -172 -129 -378 -143 -183 -143 -191 25 -444 105 -159 249
-350 290 -384 17 -15 43 -30 56 -33 33 -8 116 22 285 103 l136 65 121 -83 121
-84 5 -50 c3 -27 8 -118 11 -202 6 -164 10 -186 46 -220 43 -39 121 -59 444
-112 345 -57 346 -57 391 61 72 193 90 236 104 256 13 18 33 24 138 37 68 9
131 13 140 10 9 -4 64 -63 122 -132 109 -132 167 -183 206 -183 36 0 185 63
388 162 279 138 288 148 261 301 -9 51 -19 108 -22 127 l-5 35 53 -55 c29 -30
78 -82 109 -115 89 -94 138 -135 163 -135 41 0 167 73 310 179 123 91 275 251
395 417 57 78 181 284 201 333 12 26 24 34 110 62 269 89 493 188 694 308 186
111 312 208 437 337 209 215 315 411 355 653 21 122 16 299 -10 395 -50 183
-189 352 -360 438 -152 78 -288 104 -494 95 -143 -6 -228 -24 -337 -72 -31
-14 -60 -25 -65 -25 -4 0 -5 48 -2 108 9 181 -25 291 -119 385 -92 92 -194
150 -392 222 -158 57 -330 99 -536 130 -358 55 -529 59 -610 15 -34 -19 -46
-32 -48 -52 -5 -41 32 -54 244 -83 714 -99 1128 -270 1159 -479 22 -144 -171
-290 -540 -409 -278 -90 -552 -132 -1025 -157 -147 -8 -274 -8 -447 -1 -218
10 -431 26 -458 36 -5 2 159 4 365 4 386 1 518 8 797 41 414 51 840 146 888
200 29 32 12 48 -101 105 -254 127 -571 210 -954 250 -371 40 -970 37 -1304
-5 -350 -44 -684 -136 -895 -245 l-109 -57 -48 18 c-71 27 -158 87 -182 126
-101 163 144 354 612 478 226 60 474 99 791 125 366 29 430 37 462 52 37 17
43 30 32 61 -18 47 -64 56 -314 58 -126 1 -291 -2 -365 -7z m-1087 -1122 c61
-24 142 -54 180 -67 37 -13 67 -28 67 -32 0 -5 -18 -36 -40 -69 -96 -140 -171
-319 -212 -506 -30 -136 -32 -459 -4 -608 54 -289 176 -527 370 -720 245 -244
526 -368 866 -382 302 -12 587 74 828 251 34 25 68 46 75 46 8 0 43 -30 78
-67 l65 -68 28 -225 c16 -124 31 -244 33 -267 l6 -43 -84 -39 c-46 -21 -112
-50 -146 -64 l-62 -25 -43 46 c-24 26 -76 88 -117 139 -42 52 -87 97 -103 104
-25 10 -51 8 -151 -10 -67 -12 -179 -30 -248 -40 -69 -11 -142 -26 -162 -34
-46 -20 -75 -65 -127 -197 -23 -58 -45 -109 -50 -114 -11 -11 -311 43 -328 59
-10 9 -18 67 -27 183 -14 176 -23 209 -67 248 -34 30 -361 250 -408 274 -46
23 -66 25 -100 6 -213 -114 -275 -146 -285 -146 -22 0 -245 301 -245 332 0 10
27 47 59 82 81 86 146 177 166 230 16 42 16 45 -14 148 -18 57 -44 181 -60
275 -16 93 -34 180 -40 192 -20 36 -53 50 -202 84 l-144 33 2 194 c2 106 6
197 10 201 5 4 85 13 178 22 112 9 182 20 202 30 69 36 85 102 98 407 7 163
10 180 31 180 8 0 65 -20 127 -43z m3904 -269 c-17 -839 -198 -1471 -556
-1943 -96 -126 -315 -335 -351 -335 -7 0 -224 210 -481 467 -258 256 -474 470
-481 474 -21 13 -64 -18 -135 -96 -133 -149 -248 -223 -412 -267 -115 -31
-346 -31 -454 0 -369 106 -604 378 -672 776 -53 314 56 652 309 954 42 50 65
70 76 66 195 -80 430 -134 730 -170 183 -22 697 -30 932 -15 374 25 717 82
1028 173 131 38 339 119 405 157 28 16 54 29 59 30 5 1 6 -115 3 -271z m852
212 c29 -5 82 -24 118 -42 195 -97 274 -309 208 -563 -18 -70 -81 -205 -126
-273 -120 -177 -324 -342 -590 -477 -135 -69 -348 -159 -356 -151 -3 2 13 82
36 178 85 367 127 645 152 1002 l12 178 41 30 c58 43 178 98 250 113 74 16
185 18 255 5z"/>
    <path d="M4085 5066 c-28 -13 -74 -46 -103 -74 -164 -159 -165 -434 -4 -597
58 -59 112 -90 192 -111 116 -30 221 -1 315 87 72 67 104 131 112 220 9 89
-12 120 -215 322 -201 199 -200 199 -297 153z"/>
    <path d="M7018 3439 c-36 -20 -16 -59 52 -101 14 -8 72 -34 130 -57 316 -129
493 -255 535 -382 23 -68 16 -168 -15 -228 -65 -129 -249 -261 -505 -364 -424
-171 -900 -274 -1570 -339 -177 -17 -903 -17 -1095 0 -446 40 -837 108 -1216
212 -513 142 -879 318 -1000 482 -54 74 -68 116 -61 188 5 60 24 103 87 201
42 66 52 109 24 109 -26 0 -138 -85 -192 -145 -27 -31 -62 -81 -78 -113 -26
-51 -29 -67 -29 -152 0 -87 3 -101 33 -165 41 -87 175 -222 307 -310 293 -194
832 -409 1340 -535 462 -115 842 -160 1345 -160 809 0 1571 163 2275 485 180
82 367 202 482 308 194 178 244 434 121 614 -63 93 -168 174 -326 253 -106 52
-362 142 -512 180 -47 11 -92 23 -100 25 -8 2 -23 0 -32 -6z"/>
    <path d="M6470 2619 c-399 -189 -1035 -303 -1590 -286 -107 4 -237 10 -287 13
-81 6 -93 5 -93 -9 0 -40 113 -79 310 -107 154 -22 498 -27 685 -10 381 35
724 139 946 286 65 43 139 114 139 134 0 18 -44 10 -110 -21z"/>

  </g>
</svg>
