<svg width="64" height="64" viewBox="0 0 64 64" xmlns="http://www.w3.org/2000/svg">
  <!-- Coffee cup base -->
  <ellipse cx="32" cy="45" rx="18" ry="12" fill="#8B4513" stroke="#654321" stroke-width="1"/>
  
  <!-- Coffee cup body -->
  <rect x="16" y="20" width="32" height="30" rx="4" ry="4" fill="#D2691E" stroke="#8B4513" stroke-width="1"/>
  
  <!-- Coffee surface -->
  <ellipse cx="32" cy="22" rx="14" ry="3" fill="#4A2C17"/>
  
  <!-- Coffee handle -->
  <path d="M 48 28 Q 54 28 54 35 Q 54 42 48 42" fill="none" stroke="#8B4513" stroke-width="3"/>
  
  <!-- Steam -->
  <path d="M 26 15 Q 26 10 28 12 Q 28 8 26 10" fill="none" stroke="#DDD" stroke-width="2" stroke-linecap="round"/>
  <path d="M 32 15 Q 32 10 34 12 Q 34 8 32 10" fill="none" stroke="#DDD" stroke-width="2" stroke-linecap="round"/>
  <path d="M 38 15 Q 38 10 40 12 Q 40 8 38 10" fill="none" stroke="#DDD" stroke-width="2" stroke-linecap="round"/>
  
  <!-- Gear overlay -->
  <circle cx="32" cy="32" r="8" fill="none" stroke="#FFD700" stroke-width="2"/>
  <circle cx="32" cy="32" r="4" fill="none" stroke="#FFD700" stroke-width="1"/>
  <!-- Gear teeth -->
  <rect x="31" y="20" width="2" height="4" fill="#FFD700"/>
  <rect x="31" y="40" width="2" height="4" fill="#FFD700"/>
  <rect x="20" y="31" width="4" height="2" fill="#FFD700"/>
  <rect x="40" y="31" width="4" height="2" fill="#FFD700"/>
  <rect x="26" y="26" width="2" height="2" fill="#FFD700" transform="rotate(45 27 27)"/>
  <rect x="36" y="36" width="2" height="2" fill="#FFD700" transform="rotate(45 37 37)"/>
  <rect x="36" y="26" width="2" height="2" fill="#FFD700" transform="rotate(-45 37 27)"/>
  <rect x="26" y="36" width="2" height="2" fill="#FFD700" transform="rotate(-45 27 37)"/>
</svg>
